<svg width="108" height="41" viewBox="0 0 108 41" fill="none" xmlns="http://www.w3.org/2000/svg">
<g clip-path="url(#clip0_5_62)">
<path d="M3.77273 29H0.818182L9.36364 5.72727H12.2727L20.8182 29H17.8636L10.9091 9.40909H10.7273L3.77273 29ZM4.86364 19.9091H16.7727V22.4091H4.86364V19.9091ZM27.2614 5.72727V29H24.4432V5.72727H27.2614ZM51.6392 13H48.821C48.6544 12.1894 48.3627 11.4773 47.946 10.8636C47.5369 10.25 47.0369 9.73485 46.446 9.31818C45.8627 8.89394 45.215 8.57576 44.5028 8.36364C43.7907 8.15151 43.0483 8.04545 42.2756 8.04545C40.8665 8.04545 39.59 8.40151 38.446 9.11364C37.3097 9.82576 36.4044 10.875 35.7301 12.2614C35.0634 13.6477 34.7301 15.3485 34.7301 17.3636C34.7301 19.3788 35.0634 21.0795 35.7301 22.4659C36.4044 23.8523 37.3097 24.9015 38.446 25.6136C39.59 26.3258 40.8665 26.6818 42.2756 26.6818C43.0483 26.6818 43.7907 26.5758 44.5028 26.3636C45.215 26.1515 45.8627 25.8371 46.446 25.4205C47.0369 24.9962 47.5369 24.4773 47.946 23.8636C48.3627 23.2424 48.6544 22.5303 48.821 21.7273H51.6392C51.4271 22.9167 51.0407 23.9811 50.4801 24.9205C49.9195 25.8598 49.2225 26.6591 48.3892 27.3182C47.5559 27.9697 46.6203 28.4659 45.5824 28.8068C44.5521 29.1477 43.4498 29.3182 42.2756 29.3182C40.2907 29.3182 38.5256 28.8333 36.9801 27.8636C35.4347 26.8939 34.2188 25.5152 33.3324 23.7273C32.446 21.9394 32.0028 19.8182 32.0028 17.3636C32.0028 14.9091 32.446 12.7879 33.3324 11C34.2188 9.21212 35.4347 7.83333 36.9801 6.86364C38.5256 5.89394 40.2907 5.40909 42.2756 5.40909C43.4498 5.40909 44.5521 5.57954 45.5824 5.92045C46.6203 6.26136 47.5559 6.76136 48.3892 7.42045C49.2225 8.07197 49.9195 8.86742 50.4801 9.80682C51.0407 10.7386 51.4271 11.803 51.6392 13ZM96.517 22.6364L96.4716 19.3182H97.017L104.653 11.5455H107.972L99.8352 19.7727H99.608L96.517 22.6364ZM94.017 29V5.72727H96.6989V29H94.017ZM105.108 29L98.2898 20.3636L100.199 18.5L108.517 29H105.108Z" fill="black"/>
<path d="M62.9205 29.3636C61.3447 29.3636 59.9621 28.9886 58.7727 28.2386C57.5909 27.4886 56.6667 26.4394 56 25.0909C55.3409 23.7424 55.0114 22.1667 55.0114 20.3636C55.0114 18.5455 55.3409 16.9583 56 15.6023C56.6667 14.2462 57.5909 13.1932 58.7727 12.4432C59.9621 11.6932 61.3447 11.3182 62.9205 11.3182C64.4962 11.3182 65.875 11.6932 67.0568 12.4432C68.2462 13.1932 69.1705 14.2462 69.8295 15.6023C70.4962 16.9583 70.8295 18.5455 70.8295 20.3636C70.8295 22.1667 70.4962 23.7424 69.8295 25.0909C69.1705 26.4394 68.2462 27.4886 67.0568 28.2386C65.875 28.9886 64.4962 29.3636 62.9205 29.3636ZM62.9205 26.9545C64.1174 26.9545 65.1023 26.6477 65.875 26.0341C66.6477 25.4205 67.2197 24.6136 67.5909 23.6136C67.9621 22.6136 68.1477 21.5303 68.1477 20.3636C68.1477 19.197 67.9621 18.1098 67.5909 17.1023C67.2197 16.0947 66.6477 15.2803 65.875 14.6591C65.1023 14.0379 64.1174 13.7273 62.9205 13.7273C61.7235 13.7273 60.7386 14.0379 59.9659 14.6591C59.1932 15.2803 58.6212 16.0947 58.25 17.1023C57.8788 18.1098 57.6932 19.197 57.6932 20.3636C57.6932 21.5303 57.8788 22.6136 58.25 23.6136C58.6212 24.6136 59.1932 25.4205 59.9659 26.0341C60.7386 26.6477 61.7235 26.9545 62.9205 26.9545ZM82.0142 29.3636C80.4384 29.3636 79.0559 28.9886 77.8665 28.2386C76.6847 27.4886 75.7604 26.4394 75.0938 25.0909C74.4347 23.7424 74.1051 22.1667 74.1051 20.3636C74.1051 18.5455 74.4347 16.9583 75.0938 15.6023C75.7604 14.2462 76.6847 13.1932 77.8665 12.4432C79.0559 11.6932 80.4384 11.3182 82.0142 11.3182C83.59 11.3182 84.9688 11.6932 86.1506 12.4432C87.34 13.1932 88.2642 14.2462 88.9233 15.6023C89.59 16.9583 89.9233 18.5455 89.9233 20.3636C89.9233 22.1667 89.59 23.7424 88.9233 25.0909C88.2642 26.4394 87.34 27.4886 86.1506 28.2386C84.9688 28.9886 83.59 29.3636 82.0142 29.3636ZM82.0142 26.9545C83.2112 26.9545 84.196 26.6477 84.9688 26.0341C85.7415 25.4205 86.3134 24.6136 86.6847 23.6136C87.0559 22.6136 87.2415 21.5303 87.2415 20.3636C87.2415 19.197 87.0559 18.1098 86.6847 17.1023C86.3134 16.0947 85.7415 15.2803 84.9688 14.6591C84.196 14.0379 83.2112 13.7273 82.0142 13.7273C80.8172 13.7273 79.8324 14.0379 79.0597 14.6591C78.2869 15.2803 77.715 16.0947 77.3438 17.1023C76.9725 18.1098 76.7869 19.197 76.7869 20.3636C76.7869 21.5303 76.9725 22.6136 77.3438 23.6136C77.715 24.6136 78.2869 25.4205 79.0597 26.0341C79.8324 26.6477 80.8172 26.9545 82.0142 26.9545Z" fill="#E5ED0A"/>
<path d="M72.3636 39.1364C70.2159 39.1364 68.2386 38.8551 66.4318 38.2926C64.6307 37.7358 62.9716 36.9375 61.4545 35.8977V34.125C62.017 34.5341 62.7102 34.9148 63.5341 35.267C64.3523 35.625 65.25 35.9375 66.2273 36.2045C67.2102 36.4716 68.2244 36.679 69.2699 36.8267C70.321 36.9801 71.3523 37.0568 72.3636 37.0568C73.7159 37.0568 75.0881 36.9261 76.4801 36.6648C77.8722 36.4034 79.1648 36.0511 80.358 35.608C81.5511 35.1648 82.5227 34.6705 83.2727 34.125V35.8977C81.7557 36.9375 80.0938 37.7358 78.2869 38.2926C76.4858 38.8551 74.5114 39.1364 72.3636 39.1364Z" fill="black"/>
<path d="M63.3068 22.1364C62.8864 22.1364 62.5256 21.9858 62.2244 21.6847C61.9233 21.3835 61.7727 21.0227 61.7727 20.6023C61.7727 20.1818 61.9233 19.821 62.2244 19.5199C62.5256 19.2187 62.8864 19.0682 63.3068 19.0682C63.7273 19.0682 64.0881 19.2187 64.3892 19.5199C64.6903 19.821 64.8409 20.1818 64.8409 20.6023C64.8409 20.8807 64.7699 21.1364 64.6278 21.3693C64.4915 21.6023 64.3068 21.7898 64.0739 21.9318C63.8466 22.0682 63.5909 22.1364 63.3068 22.1364Z" fill="black"/>
<path d="M81.3068 22.1364C80.8864 22.1364 80.5256 21.9858 80.2244 21.6847C79.9233 21.3835 79.7727 21.0227 79.7727 20.6023C79.7727 20.1818 79.9233 19.821 80.2244 19.5199C80.5256 19.2187 80.8864 19.0682 81.3068 19.0682C81.7273 19.0682 82.0881 19.2187 82.3892 19.5199C82.6903 19.821 82.8409 20.1818 82.8409 20.6023C82.8409 20.8807 82.7699 21.1364 82.6278 21.3693C82.4915 21.6023 82.3068 21.7898 82.0739 21.9318C81.8466 22.0682 81.5909 22.1364 81.3068 22.1364Z" fill="black"/>
</g>
<defs>
<clipPath id="clip0_5_62">
<rect width="108" height="41" fill="white"/>
</clipPath>
</defs>
</svg>
